<mxfile host="app.diagrams.net" agent="Mozilla/5.0 (Macintosh; Intel Mac OS X 10_15_7) AppleWebKit/537.36 (KHTML, like Gecko) Chrome/137.0.0.0 Safari/537.36" version="27.2.0">
  <diagram name="第 1 页" id="cPDzZspk4rFNg1R5x_Es">
    <mxGraphModel dx="1426" dy="1828" grid="1" gridSize="10" guides="1" tooltips="1" connect="1" arrows="1" fold="1" page="1" pageScale="1" pageWidth="827" pageHeight="1169" math="0" shadow="0">
      <root>
        <mxCell id="0" />
        <mxCell id="1" parent="0" />
        <mxCell id="_8_idL4iygTQgJaF1n6U-19" style="edgeStyle=orthogonalEdgeStyle;rounded=0;orthogonalLoop=1;jettySize=auto;html=1;exitX=1;exitY=0.5;exitDx=0;exitDy=0;entryX=0;entryY=0.5;entryDx=0;entryDy=0;" edge="1" parent="1" source="_8_idL4iygTQgJaF1n6U-1" target="_8_idL4iygTQgJaF1n6U-2">
          <mxGeometry relative="1" as="geometry" />
        </mxCell>
        <mxCell id="_8_idL4iygTQgJaF1n6U-1" value="CSERP/PSERP/&lt;div&gt;Showroom内容变动&lt;/div&gt;" style="rounded=1;whiteSpace=wrap;html=1;" vertex="1" parent="1">
          <mxGeometry x="40" y="160" width="120" height="40" as="geometry" />
        </mxCell>
        <mxCell id="_8_idL4iygTQgJaF1n6U-20" style="edgeStyle=orthogonalEdgeStyle;rounded=0;orthogonalLoop=1;jettySize=auto;html=1;exitX=1;exitY=0.5;exitDx=0;exitDy=0;entryX=0;entryY=0.5;entryDx=0;entryDy=0;" edge="1" parent="1" source="_8_idL4iygTQgJaF1n6U-2" target="_8_idL4iygTQgJaF1n6U-3">
          <mxGeometry relative="1" as="geometry" />
        </mxCell>
        <mxCell id="_8_idL4iygTQgJaF1n6U-21" style="edgeStyle=orthogonalEdgeStyle;rounded=0;orthogonalLoop=1;jettySize=auto;html=1;exitX=1;exitY=0.5;exitDx=0;exitDy=0;entryX=0;entryY=0.5;entryDx=0;entryDy=0;" edge="1" parent="1" source="_8_idL4iygTQgJaF1n6U-2" target="_8_idL4iygTQgJaF1n6U-4">
          <mxGeometry relative="1" as="geometry" />
        </mxCell>
        <mxCell id="_8_idL4iygTQgJaF1n6U-2" value="提工单到Arise评估，附PRD及影响页面" style="rounded=1;whiteSpace=wrap;html=1;" vertex="1" parent="1">
          <mxGeometry x="200" y="160" width="120" height="40" as="geometry" />
        </mxCell>
        <mxCell id="_8_idL4iygTQgJaF1n6U-22" style="edgeStyle=orthogonalEdgeStyle;rounded=0;orthogonalLoop=1;jettySize=auto;html=1;exitX=1;exitY=0.5;exitDx=0;exitDy=0;entryX=0;entryY=0.5;entryDx=0;entryDy=0;" edge="1" parent="1" source="_8_idL4iygTQgJaF1n6U-3" target="_8_idL4iygTQgJaF1n6U-5">
          <mxGeometry relative="1" as="geometry" />
        </mxCell>
        <mxCell id="_8_idL4iygTQgJaF1n6U-3" value="页面补充内容变动" style="rounded=1;whiteSpace=wrap;html=1;" vertex="1" parent="1">
          <mxGeometry x="360" y="40" width="120" height="40" as="geometry" />
        </mxCell>
        <mxCell id="_8_idL4iygTQgJaF1n6U-4" value="页面主体部分变动" style="rounded=1;whiteSpace=wrap;html=1;" vertex="1" parent="1">
          <mxGeometry x="360" y="280" width="120" height="40" as="geometry" />
        </mxCell>
        <mxCell id="_8_idL4iygTQgJaF1n6U-5" value="按流量均衡分2批发布，间隔14天" style="rounded=1;whiteSpace=wrap;html=1;" vertex="1" parent="1">
          <mxGeometry x="520" y="40" width="120" height="40" as="geometry" />
        </mxCell>
        <mxCell id="_8_idL4iygTQgJaF1n6U-6" value="流量下跌，分析原因" style="rounded=1;whiteSpace=wrap;html=1;" vertex="1" parent="1">
          <mxGeometry x="680" y="-40" width="120" height="40" as="geometry" />
        </mxCell>
        <mxCell id="_8_idL4iygTQgJaF1n6U-7" value="流量未下跌，继续灰度" style="rounded=1;whiteSpace=wrap;html=1;" vertex="1" parent="1">
          <mxGeometry x="680" y="120" width="120" height="40" as="geometry" />
        </mxCell>
        <mxCell id="_8_idL4iygTQgJaF1n6U-8" value="因变更导致的，回滚，观察14天" style="rounded=1;whiteSpace=wrap;html=1;" vertex="1" parent="1">
          <mxGeometry x="840" y="-80" width="120" height="40" as="geometry" />
        </mxCell>
        <mxCell id="_8_idL4iygTQgJaF1n6U-10" value="优化内容变更方案" style="rounded=1;whiteSpace=wrap;html=1;" vertex="1" parent="1">
          <mxGeometry x="1000" y="-80" width="120" height="40" as="geometry" />
        </mxCell>
        <mxCell id="_8_idL4iygTQgJaF1n6U-12" value="按流量均衡分3批发布，间隔14天" style="rounded=1;whiteSpace=wrap;html=1;" vertex="1" parent="1">
          <mxGeometry x="520" y="280" width="120" height="40" as="geometry" />
        </mxCell>
        <mxCell id="_8_idL4iygTQgJaF1n6U-13" value="流量下跌，分析原因" style="rounded=1;whiteSpace=wrap;html=1;" vertex="1" parent="1">
          <mxGeometry x="680" y="200" width="120" height="40" as="geometry" />
        </mxCell>
        <mxCell id="_8_idL4iygTQgJaF1n6U-14" value="流量未下跌，继续灰度" style="rounded=1;whiteSpace=wrap;html=1;" vertex="1" parent="1">
          <mxGeometry x="680" y="360" width="120" height="40" as="geometry" />
        </mxCell>
        <mxCell id="_8_idL4iygTQgJaF1n6U-15" value="因变更导致的，回滚，观察14天" style="rounded=1;whiteSpace=wrap;html=1;" vertex="1" parent="1">
          <mxGeometry x="840" y="160" width="120" height="40" as="geometry" />
        </mxCell>
        <mxCell id="_8_idL4iygTQgJaF1n6U-16" value="优化内容变更方案" style="rounded=1;whiteSpace=wrap;html=1;" vertex="1" parent="1">
          <mxGeometry x="1000" y="160" width="120" height="40" as="geometry" />
        </mxCell>
        <mxCell id="_8_idL4iygTQgJaF1n6U-17" value="非变更导致的" style="rounded=1;whiteSpace=wrap;html=1;" vertex="1" parent="1">
          <mxGeometry x="840" width="120" height="40" as="geometry" />
        </mxCell>
        <mxCell id="_8_idL4iygTQgJaF1n6U-18" value="非变更导致的" style="rounded=1;whiteSpace=wrap;html=1;" vertex="1" parent="1">
          <mxGeometry x="840" y="240" width="120" height="40" as="geometry" />
        </mxCell>
      </root>
    </mxGraphModel>
  </diagram>
</mxfile>
